<svg width="19" height="19" viewBox="0 0 19 19" fill="none" xmlns="http://www.w3.org/2000/svg">
<path d="M18.9844 3.01562V4.98438H15.9844V7.98438H14.0156V4.98438H11.0156V3.01562H14.0156V0.015625H15.9844V3.01562H18.9844ZM15.9844 16.9844H2.01562V3.01562H8.01562V1H2.01562C1.45312 1 0.96875 1.20312 0.5625 1.60938C0.1875 1.98438 0 2.45312 0 3.01562V16.9844C0 17.5469 0.1875 18.0312 0.5625 18.4375C0.96875 18.8125 1.45312 19 2.01562 19H15.9844C16.5469 19 17.0156 18.8125 17.3906 18.4375C17.7969 18.0312 18 17.5469 18 16.9844V10.9844H15.9844V16.9844ZM12 10.9844V15.0156H14.0156V10.9844H12ZM8.01562 15.0156H9.98438V7H8.01562V15.0156ZM6 15.0156V9.01562H3.98438V15.0156H6Z" fill="#6E6B7B"/>
</svg>
