<svg width="20" height="24" viewBox="0 0 20 24" fill="none" xmlns="http://www.w3.org/2000/svg">
<path d="M18.0156 3H16.9844V2.01562C16.9844 1.45312 16.5625 0.984375 16 0.984375C15.4375 0.984375 15.0156 1.45312 15.0156 2.01562V3H4.98438V2.01562C4.98438 1.45312 4.5625 0.984375 4 0.984375C3.4375 0.984375 3.01562 1.45312 3.01562 2.01562V3H1.98438C0.90625 3 0.015625 3.89062 0.015625 5.01562V21C0.015625 22.0781 0.90625 23.0156 1.98438 23.0156H18.0156C19.0938 23.0156 19.9844 22.0781 19.9844 21V5.01562C19.9844 3.89062 19.0938 3 18.0156 3ZM16.9844 21H3.01562C2.45312 21 1.98438 20.5312 1.98438 20.0156V8.01562H18.0156V20.0156C18.0156 20.5312 17.5469 21 16.9844 21Z" fill="#6E6B7B"/>
</svg>
