<svg width="136" height="11" viewBox="0 0 136 11" fill="none" xmlns="http://www.w3.org/2000/svg">
<path d="M5.852 10.084C4.88133 10.084 4.004 9.86933 3.22 9.44C2.44533 9.01067 1.834 8.418 1.386 7.662C0.947333 6.89667 0.728 6.04267 0.728 5.1C0.728 4.15733 0.947333 3.308 1.386 2.552C1.834 1.78667 2.45 1.18933 3.234 0.76C4.018 0.330666 4.89533 0.116 5.866 0.116C6.594 0.116 7.266 0.237333 7.882 0.48C8.498 0.722666 9.02067 1.07733 9.45 1.544L8.792 2.202C8.02667 1.42733 7.06067 1.04 5.894 1.04C5.11933 1.04 4.41467 1.21733 3.78 1.572C3.14533 1.92667 2.646 2.412 2.282 3.028C1.92733 3.644 1.75 4.33467 1.75 5.1C1.75 5.86533 1.92733 6.556 2.282 7.172C2.646 7.788 3.14533 8.27333 3.78 8.628C4.41467 8.98267 5.11933 9.16 5.894 9.16C7.07 9.16 8.036 8.768 8.792 7.984L9.45 8.642C9.02067 9.10867 8.49333 9.468 7.868 9.72C7.252 9.96267 6.58 10.084 5.852 10.084ZM15.7374 10.084C14.7668 10.084 13.8848 9.86933 13.0914 9.44C12.3074 9.00133 11.6914 8.404 11.2434 7.648C10.8048 6.892 10.5854 6.04267 10.5854 5.1C10.5854 4.15733 10.8048 3.308 11.2434 2.552C11.6914 1.796 12.3074 1.20333 13.0914 0.773999C13.8848 0.335333 14.7668 0.116 15.7374 0.116C16.7081 0.116 17.5808 0.330666 18.3554 0.76C19.1394 1.18933 19.7554 1.78667 20.2034 2.552C20.6514 3.308 20.8754 4.15733 20.8754 5.1C20.8754 6.04267 20.6514 6.89667 20.2034 7.662C19.7554 8.418 19.1394 9.01067 18.3554 9.44C17.5808 9.86933 16.7081 10.084 15.7374 10.084ZM15.7374 9.16C16.5121 9.16 17.2121 8.98733 17.8374 8.642C18.4628 8.28733 18.9528 7.802 19.3074 7.186C19.6621 6.56067 19.8394 5.86533 19.8394 5.1C19.8394 4.33467 19.6621 3.644 19.3074 3.028C18.9528 2.40267 18.4628 1.91733 17.8374 1.572C17.2121 1.21733 16.5121 1.04 15.7374 1.04C14.9628 1.04 14.2581 1.21733 13.6234 1.572C12.9981 1.91733 12.5034 2.40267 12.1394 3.028C11.7848 3.644 11.6074 4.33467 11.6074 5.1C11.6074 5.86533 11.7848 6.56067 12.1394 7.186C12.5034 7.802 12.9981 8.28733 13.6234 8.642C14.2581 8.98733 14.9628 9.16 15.7374 9.16ZM26.8656 0.199999C28.1162 0.199999 29.0962 0.498666 29.8056 1.096C30.5149 1.69333 30.8696 2.51467 30.8696 3.56C30.8696 4.60533 30.5149 5.42667 29.8056 6.024C29.0962 6.612 28.1162 6.906 26.8656 6.906H24.2336V10H23.1976V0.199999H26.8656ZM26.8376 5.996C27.8082 5.996 28.5502 5.786 29.0636 5.366C29.5769 4.93667 29.8336 4.33467 29.8336 3.56C29.8336 2.76667 29.5769 2.16 29.0636 1.74C28.5502 1.31067 27.8082 1.096 26.8376 1.096H24.2336V5.996H26.8376ZM36.4697 6.612V10H35.4477V6.612L31.5277 0.199999H32.6337L35.9937 5.702L39.3537 0.199999H40.3897L36.4697 6.612ZM48.4833 10L46.2433 6.85C45.9913 6.878 45.73 6.892 45.4593 6.892H42.8273V10H41.7913V0.199999H45.4593C46.71 0.199999 47.69 0.498666 48.3993 1.096C49.1086 1.69333 49.4633 2.51467 49.4633 3.56C49.4633 4.32533 49.2673 4.974 48.8753 5.506C48.4926 6.02867 47.942 6.40667 47.2233 6.64L49.6173 10H48.4833ZM45.4313 6.01C46.402 6.01 47.144 5.79533 47.6573 5.366C48.1706 4.93667 48.4273 4.33467 48.4273 3.56C48.4273 2.76667 48.1706 2.16 47.6573 1.74C47.144 1.31067 46.402 1.096 45.4313 1.096H42.8273V6.01H45.4313ZM51.9085 0.199999H52.9445V10H51.9085V0.199999ZM63.0351 5.1H64.0291V8.838C63.5718 9.23933 63.0304 9.54733 62.4051 9.762C61.7798 9.97667 61.1218 10.084 60.4311 10.084C59.4511 10.084 58.5691 9.86933 57.7851 9.44C57.0011 9.01067 56.3851 8.418 55.9371 7.662C55.4891 6.89667 55.2651 6.04267 55.2651 5.1C55.2651 4.15733 55.4891 3.308 55.9371 2.552C56.3851 1.78667 57.0011 1.18933 57.7851 0.76C58.5691 0.330666 59.4558 0.116 60.4451 0.116C61.1918 0.116 61.8778 0.237333 62.5031 0.48C63.1284 0.713333 63.6558 1.06333 64.0851 1.53L63.4411 2.188C62.6664 1.42267 61.6818 1.04 60.4871 1.04C59.6938 1.04 58.9751 1.21733 58.3311 1.572C57.6964 1.91733 57.1971 2.40267 56.8331 3.028C56.4691 3.644 56.2871 4.33467 56.2871 5.1C56.2871 5.86533 56.4691 6.556 56.8331 7.172C57.1971 7.788 57.6964 8.27333 58.3311 8.628C58.9658 8.98267 59.6798 9.16 60.4731 9.16C61.4811 9.16 62.3351 8.908 63.0351 8.404V5.1ZM75.1512 0.199999V10H74.1292V5.478H67.9972V10H66.9612V0.199999H67.9972V4.568H74.1292V0.199999H75.1512ZM80.2539 1.096H76.8099V0.199999H84.7339V1.096H81.2899V10H80.2539V1.096ZM94.113 10.042C93.1984 10.042 92.363 9.82267 91.607 9.384C90.8604 8.94533 90.2677 8.348 89.829 7.592C89.3997 6.836 89.185 6.00533 89.185 5.1C89.185 4.19467 89.3997 3.364 89.829 2.608C90.2677 1.852 90.865 1.25467 91.621 0.816C92.377 0.377333 93.217 0.158 94.141 0.158C95.065 0.158 95.9004 0.372667 96.647 0.802C97.403 1.23133 97.9957 1.824 98.425 2.58C98.8544 3.32667 99.069 4.15733 99.069 5.072C99.069 5.98667 98.8497 6.82667 98.411 7.592C97.9724 8.348 97.375 8.94533 96.619 9.384C95.863 9.82267 95.0277 10.042 94.113 10.042ZM94.113 9.524C94.9344 9.524 95.681 9.328 96.353 8.936C97.025 8.53467 97.557 7.998 97.949 7.326C98.341 6.64467 98.537 5.89333 98.537 5.072C98.537 4.25067 98.3457 3.50867 97.963 2.846C97.5804 2.174 97.053 1.64667 96.381 1.264C95.7184 0.872 94.9717 0.676 94.141 0.676C93.3104 0.676 92.5544 0.872 91.873 1.264C91.201 1.656 90.669 2.19267 90.277 2.874C89.8944 3.546 89.703 4.288 89.703 5.1C89.703 5.912 89.8944 6.65867 90.277 7.34C90.669 8.012 91.201 8.544 91.873 8.936C92.545 9.328 93.2917 9.524 94.113 9.524ZM94.239 8.012C93.6884 8.012 93.189 7.89067 92.741 7.648C92.3024 7.396 91.957 7.05067 91.705 6.612C91.453 6.164 91.327 5.66 91.327 5.1C91.327 4.54 91.453 4.04067 91.705 3.602C91.957 3.154 92.3024 2.80867 92.741 2.566C93.189 2.314 93.6884 2.188 94.239 2.188C94.715 2.188 95.1444 2.286 95.527 2.482C95.919 2.66867 96.2317 2.93 96.465 3.266L95.863 3.714C95.667 3.44333 95.429 3.24267 95.149 3.112C94.869 2.98133 94.561 2.916 94.225 2.916C93.6184 2.916 93.1144 3.11667 92.713 3.518C92.321 3.91933 92.125 4.44667 92.125 5.1C92.125 5.75333 92.321 6.28067 92.713 6.682C93.1144 7.08333 93.6184 7.284 94.225 7.284C94.561 7.284 94.869 7.21867 95.149 7.088C95.429 6.95733 95.667 6.75667 95.863 6.486L96.465 6.92C96.2317 7.26533 95.919 7.536 95.527 7.732C95.1444 7.91867 94.715 8.012 94.239 8.012ZM110.861 9.104V10H103.987V9.286L108.061 5.296C108.575 4.792 108.92 4.358 109.097 3.994C109.284 3.62067 109.377 3.24733 109.377 2.874C109.377 2.29533 109.177 1.84733 108.775 1.53C108.383 1.20333 107.819 1.04 107.081 1.04C105.933 1.04 105.042 1.404 104.407 2.132L103.693 1.516C104.076 1.068 104.561 0.722666 105.149 0.48C105.747 0.237333 106.419 0.116 107.165 0.116C108.164 0.116 108.953 0.354 109.531 0.83C110.119 1.29667 110.413 1.94067 110.413 2.762C110.413 3.266 110.301 3.75133 110.077 4.218C109.853 4.68467 109.429 5.22133 108.803 5.828L105.471 9.104H110.861ZM115.978 10.084C115.222 10.084 114.545 9.88333 113.948 9.482C113.36 9.08067 112.898 8.50667 112.562 7.76C112.235 7.004 112.072 6.11733 112.072 5.1C112.072 4.08267 112.235 3.20067 112.562 2.454C112.898 1.698 113.36 1.11933 113.948 0.717999C114.545 0.316666 115.222 0.116 115.978 0.116C116.734 0.116 117.406 0.316666 117.994 0.717999C118.591 1.11933 119.058 1.698 119.394 2.454C119.73 3.20067 119.898 4.08267 119.898 5.1C119.898 6.11733 119.73 7.004 119.394 7.76C119.058 8.50667 118.591 9.08067 117.994 9.482C117.406 9.88333 116.734 10.084 115.978 10.084ZM115.978 9.16C116.547 9.16 117.046 9.00133 117.476 8.684C117.914 8.36667 118.255 7.90467 118.498 7.298C118.74 6.69133 118.862 5.95867 118.862 5.1C118.862 4.24133 118.74 3.50867 118.498 2.902C118.255 2.29533 117.914 1.83333 117.476 1.516C117.046 1.19867 116.547 1.04 115.978 1.04C115.408 1.04 114.904 1.19867 114.466 1.516C114.036 1.83333 113.7 2.29533 113.458 2.902C113.215 3.50867 113.094 4.24133 113.094 5.1C113.094 5.95867 113.215 6.69133 113.458 7.298C113.7 7.90467 114.036 8.36667 114.466 8.684C114.904 9.00133 115.408 9.16 115.978 9.16ZM128.006 9.104V10H121.132V9.286L125.206 5.296C125.719 4.792 126.065 4.358 126.242 3.994C126.429 3.62067 126.522 3.24733 126.522 2.874C126.522 2.29533 126.321 1.84733 125.92 1.53C125.528 1.20333 124.963 1.04 124.226 1.04C123.078 1.04 122.187 1.404 121.552 2.132L120.838 1.516C121.221 1.068 121.706 0.722666 122.294 0.48C122.891 0.237333 123.563 0.116 124.31 0.116C125.309 0.116 126.097 0.354 126.676 0.83C127.264 1.29667 127.558 1.94067 127.558 2.762C127.558 3.266 127.446 3.75133 127.222 4.218C126.998 4.68467 126.573 5.22133 125.948 5.828L122.616 9.104H128.006ZM135.963 9.104V10H129.089V9.286L133.163 5.296C133.676 4.792 134.022 4.358 134.199 3.994C134.386 3.62067 134.479 3.24733 134.479 2.874C134.479 2.29533 134.278 1.84733 133.877 1.53C133.485 1.20333 132.92 1.04 132.183 1.04C131.035 1.04 130.144 1.404 129.509 2.132L128.795 1.516C129.178 1.068 129.663 0.722666 130.251 0.48C130.848 0.237333 131.52 0.116 132.267 0.116C133.266 0.116 134.054 0.354 134.633 0.83C135.221 1.29667 135.515 1.94067 135.515 2.762C135.515 3.266 135.403 3.75133 135.179 4.218C134.955 4.68467 134.53 5.22133 133.905 5.828L130.573 9.104H135.963Z" fill="white"/>
</svg>
