<svg width="18" height="20" viewBox="0 0 18 20" fill="none" xmlns="http://www.w3.org/2000/svg">
<path d="M11.5781 0.578125C11.2031 0.203125 10.6875 0.015625 10.1719 0.015625H3C1.92188 0.015625 0.984375 0.90625 0.984375 1.98438V18.0156C0.984375 19.0938 1.875 19.9844 3 19.9844H15C16.0781 19.9844 17.0156 19.0938 17.0156 18.0156V6.8125C17.0156 6.29688 16.7812 5.78125 16.4062 5.40625L11.5781 0.578125ZM12 16H6C5.4375 16 5.01562 15.5312 5.01562 15.0156C5.01562 14.4531 5.4375 13.9844 6 13.9844H12C12.5625 13.9844 12.9844 14.4531 12.9844 15.0156C12.9844 15.5312 12.5625 16 12 16ZM12 12.0156H6C5.4375 12.0156 5.01562 11.5469 5.01562 10.9844C5.01562 10.4688 5.4375 10 6 10H12C12.5625 10 12.9844 10.4688 12.9844 10.9844C12.9844 11.5469 12.5625 12.0156 12 12.0156ZM9.98438 6.01562V1.51562L15.5156 7H11.0156C10.4531 7 9.98438 6.53125 9.98438 6.01562Z" fill="#6E6B7B"/>
</svg>
