<svg width="14" height="18" viewBox="0 0 14 18" fill="none" xmlns="http://www.w3.org/2000/svg">
<path d="M11.5938 6H10V0.984375C10 0.46875 9.53125 0 9.01562 0H4.98438C4.46875 0 4 0.46875 4 0.984375V6H2.40625C1.51562 6 1.04688 7.07812 1.70312 7.6875L6.29688 12.2812C6.67188 12.7031 7.32812 12.7031 7.70312 12.2812L12.2969 7.6875C12.9062 7.07812 12.4844 6 11.5938 6ZM0.015625 15.9844C0.015625 16.5469 0.4375 17.0156 1 17.0156H13C13.5625 17.0156 13.9844 16.5469 13.9844 15.9844C13.9844 15.4688 13.5625 15 13 15H1C0.4375 15 0.015625 15.4688 0.015625 15.9844Z" fill="#6E6B7B"/>
</svg>
