<svg width="79" height="12" viewBox="0 0 79 12" fill="none" xmlns="http://www.w3.org/2000/svg">
<path d="M7.666 9.474V11H0.316V1.2H7.47V2.726H2.136V5.274H6.868V6.772H2.136V9.474H7.666ZM16.7805 0.611999V11H15.1005V10.034C14.8112 10.3887 14.4519 10.6547 14.0225 10.832C13.6025 11.0093 13.1359 11.098 12.6225 11.098C11.9039 11.098 11.2552 10.9393 10.6765 10.622C10.1072 10.3047 9.65921 9.85667 9.33255 9.278C9.00588 8.69 8.84255 8.018 8.84255 7.262C8.84255 6.506 9.00588 5.83867 9.33255 5.26C9.65921 4.68133 10.1072 4.23333 10.6765 3.916C11.2552 3.59867 11.9039 3.44 12.6225 3.44C13.1172 3.44 13.5699 3.524 13.9805 3.692C14.3912 3.86 14.7412 4.112 15.0305 4.448V0.611999H16.7805ZM12.8325 9.6C13.2525 9.6 13.6305 9.50667 13.9665 9.32C14.3025 9.124 14.5685 8.84867 14.7645 8.494C14.9605 8.13933 15.0585 7.72867 15.0585 7.262C15.0585 6.79533 14.9605 6.38467 14.7645 6.03C14.5685 5.67533 14.3025 5.40467 13.9665 5.218C13.6305 5.022 13.2525 4.924 12.8325 4.924C12.4125 4.924 12.0345 5.022 11.6985 5.218C11.3625 5.40467 11.0965 5.67533 10.9005 6.03C10.7045 6.38467 10.6065 6.79533 10.6065 7.262C10.6065 7.72867 10.7045 8.13933 10.9005 8.494C11.0965 8.84867 11.3625 9.124 11.6985 9.32C12.0345 9.50667 12.4125 9.6 12.8325 9.6ZM28.2399 11L28.2259 4.504L25.0059 9.88H24.1939L20.9739 4.588V11H19.2379V1.2H20.7359L24.6279 7.696L28.4499 1.2H29.9479L29.9619 11H28.2399ZM35.297 3.44C36.3983 3.44 37.2383 3.706 37.817 4.238C38.405 4.76067 38.699 5.554 38.699 6.618V11H37.047V10.09C36.8323 10.4167 36.5243 10.6687 36.123 10.846C35.731 11.014 35.255 11.098 34.695 11.098C34.135 11.098 33.645 11.0047 33.225 10.818C32.805 10.622 32.4783 10.356 32.245 10.02C32.021 9.67467 31.909 9.28733 31.909 8.858C31.909 8.186 32.1563 7.64933 32.651 7.248C33.155 6.83733 33.9436 6.632 35.017 6.632H36.949V6.52C36.949 5.99733 36.7903 5.596 36.473 5.316C36.165 5.036 35.703 4.896 35.087 4.896C34.667 4.896 34.2516 4.96133 33.841 5.092C33.4396 5.22267 33.099 5.40467 32.819 5.638L32.133 4.364C32.525 4.06533 32.9963 3.83667 33.547 3.678C34.0976 3.51933 34.681 3.44 35.297 3.44ZM35.059 9.824C35.4976 9.824 35.885 9.726 36.221 9.53C36.5663 9.32467 36.809 9.03533 36.949 8.662V7.794H35.143C34.135 7.794 33.631 8.12533 33.631 8.788C33.631 9.10533 33.757 9.35733 34.009 9.544C34.261 9.73067 34.611 9.824 35.059 9.824ZM44.4432 11.098C43.6686 11.098 42.9732 10.9347 42.3572 10.608C41.7412 10.2813 41.2606 9.82867 40.9152 9.25C40.5699 8.662 40.3972 7.99933 40.3972 7.262C40.3972 6.52467 40.5699 5.86667 40.9152 5.288C41.2606 4.70933 41.7366 4.25667 42.3432 3.93C42.9592 3.60333 43.6592 3.44 44.4432 3.44C45.1806 3.44 45.8246 3.58933 46.3752 3.888C46.9352 4.18667 47.3552 4.616 47.6352 5.176L46.2912 5.96C46.0766 5.61467 45.8059 5.358 45.4792 5.19C45.1619 5.01267 44.8119 4.924 44.4292 4.924C43.7759 4.924 43.2346 5.13867 42.8052 5.568C42.3759 5.988 42.1612 6.55267 42.1612 7.262C42.1612 7.97133 42.3712 8.54067 42.7912 8.97C43.2206 9.39 43.7666 9.6 44.4292 9.6C44.8119 9.6 45.1619 9.516 45.4792 9.348C45.8059 9.17067 46.0766 8.90933 46.2912 8.564L47.6352 9.348C47.3459 9.908 46.9212 10.342 46.3612 10.65C45.8106 10.9487 45.1712 11.098 44.4432 11.098ZM53.3216 3.44C54.2643 3.44 55.0203 3.71533 55.5896 4.266C56.159 4.81667 56.4436 5.63333 56.4436 6.716V11H54.6936V6.94C54.6936 6.28667 54.5396 5.79667 54.2316 5.47C53.9236 5.134 53.485 4.966 52.9156 4.966C52.2716 4.966 51.763 5.162 51.3896 5.554C51.0163 5.93667 50.8296 6.492 50.8296 7.22V11H49.0796V0.611999H50.8296V4.392C51.119 4.084 51.4736 3.85067 51.8936 3.692C52.323 3.524 52.799 3.44 53.3216 3.44ZM58.6636 3.524H60.4136V11H58.6636V3.524ZM59.5456 2.292C59.2283 2.292 58.9623 2.194 58.7476 1.998C58.533 1.79267 58.4256 1.54067 58.4256 1.242C58.4256 0.943333 58.533 0.695999 58.7476 0.499999C58.9623 0.294666 59.2283 0.192 59.5456 0.192C59.863 0.192 60.129 0.29 60.3436 0.485999C60.5583 0.672666 60.6656 0.910666 60.6656 1.2C60.6656 1.508 60.5583 1.76933 60.3436 1.984C60.1383 2.18933 59.8723 2.292 59.5456 2.292ZM66.9525 3.44C67.8952 3.44 68.6512 3.71533 69.2205 4.266C69.7898 4.81667 70.0745 5.63333 70.0745 6.716V11H68.3245V6.94C68.3245 6.28667 68.1705 5.79667 67.8625 5.47C67.5545 5.134 67.1158 4.966 66.5465 4.966C65.9025 4.966 65.3938 5.162 65.0205 5.554C64.6472 5.93667 64.4605 6.492 64.4605 7.22V11H62.7105V3.524H64.3765V4.49C64.6658 4.14467 65.0298 3.88333 65.4685 3.706C65.9072 3.52867 66.4018 3.44 66.9525 3.44ZM75.1505 3.44C76.2518 3.44 77.0918 3.706 77.6705 4.238C78.2585 4.76067 78.5525 5.554 78.5525 6.618V11H76.9005V10.09C76.6858 10.4167 76.3778 10.6687 75.9765 10.846C75.5845 11.014 75.1085 11.098 74.5485 11.098C73.9885 11.098 73.4985 11.0047 73.0785 10.818C72.6585 10.622 72.3318 10.356 72.0985 10.02C71.8745 9.67467 71.7625 9.28733 71.7625 8.858C71.7625 8.186 72.0098 7.64933 72.5045 7.248C73.0085 6.83733 73.7972 6.632 74.8705 6.632H76.8025V6.52C76.8025 5.99733 76.6438 5.596 76.3265 5.316C76.0185 5.036 75.5565 4.896 74.9405 4.896C74.5205 4.896 74.1052 4.96133 73.6945 5.092C73.2932 5.22267 72.9525 5.40467 72.6725 5.638L71.9865 4.364C72.3785 4.06533 72.8498 3.83667 73.4005 3.678C73.9512 3.51933 74.5345 3.44 75.1505 3.44ZM74.9125 9.824C75.3512 9.824 75.7385 9.726 76.0745 9.53C76.4198 9.32467 76.6625 9.03533 76.8025 8.662V7.794H74.9965C73.9885 7.794 73.4845 8.12533 73.4845 8.788C73.4845 9.10533 73.6105 9.35733 73.8625 9.544C74.1145 9.73067 74.4645 9.824 74.9125 9.824Z" fill="white"/>
</svg>
