<svg width="18" height="18" viewBox="0 0 18 18" fill="none" xmlns="http://www.w3.org/2000/svg">
<path d="M15.9844 0H2.01562C0.890625 0 0 0.890625 0 2.01562V15.9844C0 17.1094 0.890625 18 2.01562 18H15.9844C17.1094 18 18 17.1094 18 15.9844V2.01562C18 0.890625 17.1094 0 15.9844 0ZM12.9844 9.98438H9.98438V12.9844C9.98438 13.5469 9.5625 14.0156 9 14.0156C8.4375 14.0156 8.01562 13.5469 8.01562 12.9844V9.98438H5.01562C4.45312 9.98438 3.98438 9.5625 3.98438 9C3.98438 8.4375 4.45312 8.01562 5.01562 8.01562H8.01562V5.01562C8.01562 4.45312 8.4375 3.98438 9 3.98438C9.5625 3.98438 9.98438 4.45312 9.98438 5.01562V8.01562H12.9844C13.5469 8.01562 14.0156 8.4375 14.0156 9C14.0156 9.5625 13.5469 9.98438 12.9844 9.98438Z" fill="#6E6B7B"/>
</svg>
