<svg width="14" height="20" viewBox="0 0 14 20" fill="none" xmlns="http://www.w3.org/2000/svg">
<path d="M13.9844 10.8906C13.9844 10.4219 13.6562 10 13.1875 9.90625C11.9219 9.53125 10.9844 8.35938 10.9844 7V1.98438H12.0156C12.5312 1.98438 13 1.5625 13 1C13 0.4375 12.5312 0.015625 12.0156 0.015625H1.98438C1.46875 0.015625 1 0.4375 1 1C1 1.5625 1.46875 1.98438 1.98438 1.98438H3.01562V7C3.01562 8.35938 2.07812 9.53125 0.8125 9.90625C0.34375 10 0.015625 10.4219 0.015625 10.8906V10.9844C0.015625 11.5469 0.4375 12.0156 1 12.0156H5.96875L6.01562 19C6.01562 19.5625 6.4375 19.9844 7 19.9844C7.5625 19.9844 7.98438 19.5625 7.98438 19V12.0156H13C13.5625 12.0156 13.9844 11.5469 13.9844 10.9844V10.8906Z" fill="#6E6B7B"/>
</svg>
