<svg width="20" height="21" viewBox="0 0 20 21" fill="none" xmlns="http://www.w3.org/2000/svg">
<path d="M10 0.965332C4.46875 0.965332 0.015625 5.41846 0.015625 10.9497C0.015625 16.481 4.46875 20.9341 10 20.9341C15.5312 20.9341 19.9844 16.481 19.9844 10.9497C19.9844 5.41846 15.5312 0.965332 10 0.965332ZM10 18.9653C5.59375 18.9653 1.98438 15.356 1.98438 10.9497C1.98438 6.54346 5.59375 2.93408 10 2.93408C14.4062 2.93408 18.0156 6.54346 18.0156 10.9497C18.0156 15.356 14.4062 18.9653 10 18.9653ZM9.76562 5.93408H9.71875C9.29688 5.93408 9.01562 6.26221 9.01562 6.68408V11.3716C9.01562 11.7466 9.20312 12.0747 9.48438 12.2622L13.6562 14.7466C13.9844 14.9341 14.4062 14.8403 14.6406 14.5122C14.8281 14.1372 14.7344 13.7153 14.3594 13.5278L10.5156 11.231V6.68408C10.5156 6.26221 10.1875 5.93408 9.76562 5.93408Z" fill="#6E6B7B"/>
</svg>
