<svg width="19" height="19" viewBox="0 0 19 19" fill="none" xmlns="http://www.w3.org/2000/svg">
<path d="M13.5156 12.0156H12.7188L12.4375 11.7344C13.6094 10.3281 14.2656 8.40625 13.8906 6.39062C13.4219 3.625 11.125 1.375 8.3125 1.04688C4.09375 0.53125 0.53125 4.09375 1.04688 8.3125C1.375 11.125 3.625 13.4219 6.39062 13.8906C8.40625 14.2656 10.3281 13.6094 11.7344 12.4375L12.0156 12.7188V13.5156L16.2344 17.7344C16.6562 18.1562 17.3125 18.1562 17.7344 17.7344C18.1562 17.3594 18.1562 16.6562 17.7344 16.2812L13.5156 12.0156ZM7.51562 12.0156C5.03125 12.0156 3.01562 10 3.01562 7.51562C3.01562 5.03125 5.03125 3.01562 7.51562 3.01562C10 3.01562 12.0156 5.03125 12.0156 7.51562C12.0156 10 10 12.0156 7.51562 12.0156Z" fill="white"/>
</svg>
