<svg width="20" height="20" viewBox="0 0 20 20" fill="none" xmlns="http://www.w3.org/2000/svg">
<path d="M17.5 10C17.5 9.76562 17.5 9.53125 17.4531 9.29688L19.3281 7.89062C19.75 7.60938 19.8438 7.04688 19.6094 6.625L17.7344 3.39062C17.4531 2.92188 16.9375 2.78125 16.4688 2.96875L14.3125 3.85938C13.9375 3.625 13.5625 3.39062 13.1406 3.20312L12.8594 0.859375C12.8125 0.390625 12.3906 0.015625 11.875 0.015625H8.125C7.60938 0.015625 7.1875 0.390625 7.14062 0.859375L6.85938 3.20312C6.4375 3.39062 6.0625 3.625 5.6875 3.85938L3.53125 2.96875C3.0625 2.78125 2.54688 2.92188 2.26562 3.39062L0.390625 6.625C0.15625 7.04688 0.25 7.60938 0.671875 7.9375L2.54688 9.34375C2.5 9.53125 2.5 9.76562 2.5 10C2.5 10.2344 2.5 10.4688 2.54688 10.7031L0.671875 12.1094C0.25 12.3906 0.15625 12.9531 0.390625 13.375L2.26562 16.6094C2.54688 17.0781 3.0625 17.2188 3.53125 17.0312L5.6875 16.1406C6.0625 16.375 6.4375 16.6094 6.85938 16.7969L7.14062 19.1406C7.1875 19.6094 7.60938 19.9844 8.125 19.9844H11.875C12.3438 19.9844 12.8125 19.6094 12.8594 19.1406L13.1406 16.7969C13.5625 16.6094 13.9375 16.375 14.3125 16.1406L16.4688 17.0312C16.9375 17.2188 17.4531 17.0781 17.6875 16.6094L19.5625 13.375C19.8438 12.9531 19.7031 12.3906 19.3281 12.1094L17.4531 10.7031C17.5 10.4688 17.5 10.2344 17.5 10ZM10.0469 13.5156C8.125 13.5156 6.53125 11.9219 6.53125 10C6.53125 8.07812 8.125 6.48438 10.0469 6.48438C11.9688 6.48438 13.5625 8.07812 13.5625 10C13.5625 11.9219 11.9688 13.5156 10.0469 13.5156Z" fill="white"/>
</svg>
