<svg width="18" height="20" viewBox="0 0 18 20" fill="none" xmlns="http://www.w3.org/2000/svg">
<path d="M15 14.0781C14.25 14.0781 13.5469 14.3594 13.0312 14.8281L5.90625 10.7031C5.95312 10.4688 6 10.2344 6 10C6 9.76562 5.95312 9.53125 5.90625 9.29688L12.9375 5.17188C13.5 5.6875 14.2031 6.01562 15 6.01562C16.6406 6.01562 18 4.65625 18 3.01562C18 1.32812 16.6406 0.015625 15 0.015625C13.3594 0.015625 12 1.32812 12 3.01562C12 3.25 12.0469 3.48438 12.0938 3.71875L5.0625 7.79688C4.5 7.32812 3.79688 7 3 7C1.35938 7 0 8.35938 0 10C0 11.6406 1.35938 13 3 13C3.79688 13 4.5 12.6719 5.0625 12.2031L12.1406 16.3281C12.0938 16.5625 12.0938 16.7969 12.0938 16.9844C12.0938 18.625 13.4062 19.9375 15 19.9375C16.5938 19.9375 17.9062 18.625 17.9062 16.9844C17.9062 15.3906 16.5938 14.0781 15 14.0781Z" fill="#6E6B7B"/>
</svg>
