<svg width="18" height="22" viewBox="0 0 18 22" fill="none" xmlns="http://www.w3.org/2000/svg">
<path d="M9 2.98438V1.20312C9 0.78125 8.4375 0.546875 8.15625 0.875L5.34375 3.64062C5.15625 3.82812 5.15625 4.15625 5.34375 4.34375L8.15625 7.15625C8.4375 7.4375 9 7.25 9 6.78125V5C12.3281 5 15 7.67188 15 11C15 11.7969 14.8594 12.5469 14.5781 13.25C14.3906 13.625 14.5312 14 14.8125 14.2812C15.2812 14.7969 16.1719 14.6094 16.4531 13.9531C16.7812 13.0625 17.0156 12.0312 17.0156 11C17.0156 6.59375 13.4062 2.98438 9 2.98438ZM9 17C5.67188 17 3 14.3281 3 11C3 10.2031 3.14062 9.45312 3.42188 8.75C3.60938 8.375 3.46875 8 3.1875 7.71875C2.71875 7.20312 1.82812 7.39062 1.54688 8.04688C1.21875 8.9375 0.984375 9.96875 0.984375 11C0.984375 15.4062 4.59375 19.0156 9 19.0156V20.7969C9 21.2188 9.5625 21.4531 9.84375 21.125L12.6562 18.3594C12.8438 18.1719 12.8438 17.8438 12.6562 17.6562L9.84375 14.8438C9.5625 14.5625 9 14.75 9 15.2188V17Z" fill="#6E6B7B"/>
</svg>
