<svg width="18" height="19" viewBox="0 0 18 19" fill="none" xmlns="http://www.w3.org/2000/svg">
<path d="M0 15.9497C0 16.5122 0.46875 16.9341 0.984375 16.9341H6V14.9653H0.984375C0.46875 14.9653 0 15.3872 0 15.9497ZM0 3.94971C0 4.51221 0.46875 4.93408 0.984375 4.93408H9.98438V2.96533H0.984375C0.46875 2.96533 0 3.38721 0 3.94971ZM9.98438 17.9653V16.9341H17.0156C17.5312 16.9341 18 16.5122 18 15.9497C18 15.3872 17.5312 14.9653 17.0156 14.9653H9.98438V13.9341C9.98438 13.4185 9.5625 12.9497 9 12.9497C8.4375 12.9497 8.01562 13.4185 8.01562 13.9341V17.9653C8.01562 18.481 8.4375 18.9497 9 18.9497C9.5625 18.9497 9.98438 18.481 9.98438 17.9653ZM3.98438 7.93408V8.96533H0.984375C0.46875 8.96533 0 9.38721 0 9.94971C0 10.5122 0.46875 10.9341 0.984375 10.9341H3.98438V11.9653C3.98438 12.481 4.45312 12.9497 5.01562 12.9497C5.53125 12.9497 6 12.481 6 11.9653V7.93408C6 7.41846 5.53125 6.94971 5.01562 6.94971C4.45312 6.94971 3.98438 7.41846 3.98438 7.93408ZM18 9.94971C18 9.38721 17.5312 8.96533 17.0156 8.96533H8.01562V10.9341H17.0156C17.5312 10.9341 18 10.5122 18 9.94971ZM12.9844 6.94971C13.5469 6.94971 14.0156 6.48096 14.0156 5.96533V4.93408H17.0156C17.5312 4.93408 18 4.51221 18 3.94971C18 3.38721 17.5312 2.96533 17.0156 2.96533H14.0156V1.93408C14.0156 1.41846 13.5469 0.949707 12.9844 0.949707C12.4688 0.949707 12 1.41846 12 1.93408V5.96533C12 6.48096 12.4688 6.94971 12.9844 6.94971Z" fill="#6E6B7B"/>
</svg>
