<svg width="20" height="20" viewBox="0 0 20 20" fill="none" xmlns="http://www.w3.org/2000/svg">
<path d="M10 0.015625C4.46875 0.015625 0.015625 4.46875 0.015625 10C0.015625 15.5312 4.46875 19.9844 10 19.9844C15.5312 19.9844 19.9844 15.5312 19.9844 10C19.9844 4.46875 15.5312 0.015625 10 0.015625ZM11.875 9.53125L7.60938 13.7969C7.23438 14.1719 6.625 14.1719 6.20312 13.7969C5.82812 13.4219 5.82812 12.7656 6.20312 12.3906L10.4688 8.125L9.20312 6.85938C8.875 6.53125 9.10938 6.01562 9.53125 6.01562H13.4688C13.75 6.01562 13.9844 6.20312 13.9844 6.48438V10.4219C13.9844 10.8906 13.4688 11.125 13.1406 10.7969L11.875 9.53125Z" fill="#6E6B7B"/>
</svg>
