<svg width="20" height="18" viewBox="0 0 20 18" fill="none" xmlns="http://www.w3.org/2000/svg">
<path d="M4.51562 18H1C0.4375 18 0.015625 17.5312 0.015625 17.0156V6.98438C0.015625 6.46875 0.4375 6 1 6H4.51562C5.03125 6 5.5 6.46875 5.5 6.98438V17.0156C5.5 17.5312 5.03125 18 4.51562 18ZM11.7344 0H8.26562C7.70312 0 7.23438 0.46875 7.23438 0.984375V17.0156C7.23438 17.5312 7.70312 18 8.26562 18H11.7344C12.2969 18 12.7656 17.5312 12.7656 17.0156V0.984375C12.7656 0.46875 12.2969 0 11.7344 0ZM19 8.01562H15.4844C14.9688 8.01562 14.5 8.4375 14.5 9V17.0156C14.5 17.5312 14.9688 18 15.4844 18H19C19.5625 18 19.9844 17.5312 19.9844 17.0156V9C19.9844 8.4375 19.5625 8.01562 19 8.01562Z" fill="white"/>
</svg>
