<svg width="22" height="22" viewBox="0 0 22 22" fill="none" xmlns="http://www.w3.org/2000/svg">
<path d="M11.9844 11.9844C11.4219 12.5469 10.5312 12.5469 10.0156 12.0312V11.9844C9.45312 11.4688 9.45312 10.5781 10.0156 10.0156C10.5312 9.45312 11.4219 9.45312 11.9844 10.0156C12.5469 10.5312 12.5469 11.4688 11.9844 11.9844ZM11 5L13.1094 7.10938L15.6406 4.625L12.4062 1.4375C11.6562 0.640625 10.3906 0.640625 9.59375 1.4375L6.40625 4.625L8.89062 7.10938L11 5ZM5 11L7.10938 8.89062L4.625 6.35938L1.4375 9.59375C0.640625 10.3438 0.640625 11.6094 1.4375 12.4062L4.625 15.5938L7.10938 13.1094L5 11ZM17 11L14.8906 13.1094L17.375 15.6406L20.5625 12.4062C21.3594 11.6562 21.3594 10.3906 20.5625 9.59375L17.375 6.40625L14.8906 8.89062L17 11ZM11 17L8.89062 14.8906L6.35938 17.375L9.59375 20.5625C10.3438 21.3594 11.6094 21.3594 12.4062 20.5625L15.5938 17.375L13.1094 14.8906L11 17Z" fill="#6E6B7B"/>
</svg>
