<svg width="12" height="12" viewBox="0 0 12 12" fill="none" xmlns="http://www.w3.org/2000/svg">
<path d="M6 4.25H8.32422C8.65234 4.25 8.92578 3.97656 8.92578 3.67578C8.92578 3.34766 8.65234 3.07422 8.32422 3.07422H6C5.67188 3.07422 5.42578 3.34766 5.42578 3.67578C5.42578 3.97656 5.67188 4.25 6 4.25ZM6 6.57422H8.32422C8.65234 6.57422 8.92578 6.32812 8.92578 6C8.92578 5.67188 8.65234 5.42578 8.32422 5.42578H6C5.67188 5.42578 5.42578 5.67188 5.42578 6C5.42578 6.32812 5.67188 6.57422 6 6.57422ZM6 8.92578H8.32422C8.65234 8.92578 8.92578 8.65234 8.92578 8.32422C8.92578 8.02344 8.65234 7.75 8.32422 7.75H6C5.67188 7.75 5.42578 8.02344 5.42578 8.32422C5.42578 8.65234 5.67188 8.92578 6 8.92578ZM3.07422 3.07422H4.25V4.25H3.07422V3.07422ZM3.07422 5.42578H4.25V6.57422H3.07422V5.42578ZM3.07422 7.75H4.25V8.92578H3.07422V7.75ZM10.6758 0.75H1.32422C1.02344 0.75 0.75 1.02344 0.75 1.32422V10.6758C0.75 10.9766 1.02344 11.25 1.32422 11.25H10.6758C10.9766 11.25 11.25 10.9766 11.25 10.6758V1.32422C11.25 1.02344 10.9766 0.75 10.6758 0.75ZM10.0742 10.0742H1.92578V1.92578H10.0742V10.0742Z" fill="#6E6B7B"/>
</svg>
