<svg width="18" height="18" viewBox="0 0 18 18" fill="none" xmlns="http://www.w3.org/2000/svg">
<path d="M2.01562 2.01562H8.01562C8.53125 2.01562 9 1.54688 9 0.984375C9 0.46875 8.53125 0 8.01562 0H2.01562C0.890625 0 0 0.890625 0 2.01562V15.9844C0 17.1094 0.890625 18 2.01562 18H8.01562C8.53125 18 9 17.5312 9 17.0156C9 16.4531 8.53125 15.9844 8.01562 15.9844H2.01562V2.01562ZM17.6719 8.67188L14.8594 5.85938C14.5312 5.53125 14.0156 5.76562 14.0156 6.1875V8.01562H6.98438C6.46875 8.01562 6 8.4375 6 9C6 9.5625 6.46875 9.98438 6.98438 9.98438H14.0156V11.8125C14.0156 12.2344 14.5312 12.4688 14.8594 12.1406L17.625 9.32812C17.8594 9.14062 17.8594 8.85938 17.6719 8.67188Z" fill="#6E6B7B"/>
</svg>
