<svg width="20" height="20" viewBox="0 0 20 20" fill="none" xmlns="http://www.w3.org/2000/svg">
<path d="M10 0.015625C4.46875 0.015625 0.015625 4.46875 0.015625 10C0.015625 15.5312 4.46875 19.9844 10 19.9844C15.5312 19.9844 19.9844 15.5312 19.9844 10C19.9844 4.46875 15.5312 0.015625 10 0.015625ZM10.9844 16.9844H9.01562V15.0156H10.9844V16.9844ZM13.0469 9.25L12.1562 10.1875C11.6875 10.7031 11.3125 11.125 11.125 11.875C11.0312 12.2031 10.9844 12.5312 10.9844 13H9.01562V12.4844C9.01562 12.0625 9.0625 11.5938 9.20312 11.1719C9.4375 10.6094 9.76562 10.0938 10.1875 9.67188L11.4062 8.40625C11.875 7.98438 12.1094 7.32812 11.9688 6.625C11.8281 5.875 11.2656 5.26562 10.5625 5.07812C9.4375 4.75 8.45312 5.40625 8.07812 6.34375C7.98438 6.71875 7.65625 7 7.28125 7H7C6.39062 7 6.01562 6.4375 6.15625 5.875C6.57812 4.42188 7.84375 3.29688 9.39062 3.0625C10.8906 2.82812 12.3438 3.57812 13.2812 4.84375C14.4531 6.48438 14.0781 8.21875 13.0469 9.25Z" fill="#6E6B7B"/>
</svg>
