<svg width="18" height="20" viewBox="0 0 18 20" fill="none" xmlns="http://www.w3.org/2000/svg">
<path d="M18 0.203125C17.8594 0.203125 17.7188 0.25 17.6719 0.34375L16.875 1.14062C16.6406 1.32812 16.3594 1.32812 16.1719 1.14062L15.375 0.34375C15.1406 0.15625 14.8594 0.15625 14.6719 0.34375L13.875 1.14062C13.6406 1.32812 13.3594 1.32812 13.1719 1.14062L12.375 0.34375C12.1406 0.15625 11.8594 0.15625 11.6719 0.34375L10.875 1.14062C10.6406 1.32812 10.3594 1.32812 10.1719 1.14062L9.375 0.34375C9.14062 0.15625 8.85938 0.15625 8.67188 0.34375L7.875 1.14062C7.64062 1.32812 7.35938 1.32812 7.17188 1.14062L6.32812 0.34375C6.14062 0.15625 5.85938 0.15625 5.625 0.34375L4.82812 1.14062C4.64062 1.32812 4.35938 1.32812 4.125 1.14062L3.32812 0.34375C3.14062 0.15625 2.85938 0.15625 2.625 0.34375L1.82812 1.14062C1.64062 1.32812 1.35938 1.32812 1.125 1.14062L0.328125 0.34375C0.28125 0.25 0.140625 0.203125 0 0.203125V19.7969C0.140625 19.7969 0.28125 19.75 0.328125 19.6562L1.125 18.8594C1.35938 18.6719 1.64062 18.6719 1.82812 18.8594L2.625 19.6562C2.85938 19.8438 3.14062 19.8438 3.32812 19.6562L4.125 18.8594C4.35938 18.6719 4.64062 18.6719 4.82812 18.8594L5.625 19.6562C5.85938 19.8438 6.14062 19.8438 6.32812 19.6562L7.125 18.8594C7.35938 18.6719 7.64062 18.6719 7.82812 18.8594L8.625 19.6562C8.85938 19.8438 9.14062 19.8438 9.32812 19.6562L10.125 18.8594C10.3594 18.6719 10.6406 18.6719 10.8281 18.8594L11.625 19.6562C11.8594 19.8438 12.1406 19.8438 12.3281 19.6562L13.125 18.8594C13.3594 18.6719 13.6406 18.6719 13.8281 18.8594L14.625 19.6562C14.8594 19.8438 15.1406 19.8438 15.3281 19.6562L16.125 18.8594C16.3594 18.6719 16.6406 18.6719 16.8281 18.8594L17.625 19.6562C17.7188 19.75 17.8594 19.7969 18 19.7969V0.203125ZM14.0156 15.0156H3.98438C3.46875 15.0156 3 14.5469 3 13.9844C3 13.4688 3.46875 13 3.98438 13H14.0156C14.5312 13 15 13.4688 15 13.9844C15 14.5469 14.5312 15.0156 14.0156 15.0156ZM14.0156 10.9844H3.98438C3.46875 10.9844 3 10.5625 3 10C3 9.4375 3.46875 9.01562 3.98438 9.01562H14.0156C14.5312 9.01562 15 9.4375 15 10C15 10.5625 14.5312 10.9844 14.0156 10.9844ZM14.0156 7H3.98438C3.46875 7 3 6.53125 3 6.01562C3 5.45312 3.46875 4.98438 3.98438 4.98438H14.0156C14.5312 4.98438 15 5.45312 15 6.01562C15 6.53125 14.5312 7 14.0156 7Z" fill="#6E6B7B"/>
</svg>
