<svg width="16" height="20" viewBox="0 0 16 20" fill="none" xmlns="http://www.w3.org/2000/svg">
<path d="M8 19.9844C9.07812 19.9844 10.0156 19.0938 10.0156 18.0156H5.98438C5.98438 19.0938 6.875 19.9844 8 19.9844ZM14 13.9844V9.01562C14 5.92188 12.3594 3.34375 9.5 2.6875V1.98438C9.5 1.1875 8.84375 0.484375 8 0.484375C7.15625 0.484375 6.5 1.1875 6.5 1.98438V2.6875C3.64062 3.34375 2 5.92188 2 9.01562V13.9844L0.6875 15.2969C0.078125 15.9062 0.5 16.9844 1.39062 16.9844H14.5625C15.4531 16.9844 15.9219 15.9062 15.3125 15.2969L14 13.9844Z" fill="#C4C4C4"/>
</svg>
